<svg width="20" height="20" viewBox="0 0 20 20" fill="none" xmlns="http://www.w3.org/2000/svg">
<path d="M0.416748 0.657937C0.416748 0.42324 0.416748 0.235482 0.416748 0.0209008C0.523331 0.012854 0.617616 0.00212497 0.713267 0.00212497C1.29264 0.000783835 1.87201 -0.00189842 2.45139 0.00212497C3.57051 0.00883062 4.4628 0.753158 4.62951 1.84886C4.85497 3.32276 5.05994 4.79935 5.2731 6.27325C5.5054 7.8759 5.7377 9.47855 5.96726 11.0812C6.08887 11.9301 6.21869 12.7791 6.32663 13.6293C6.44688 14.5681 6.91831 15.2293 7.84886 15.5311C8.06202 15.6008 8.29842 15.6236 8.52525 15.6317L19.5771 15.8355V16.4953L9.05543 16.3049C8.70562 16.2942 8.35171 16.3036 8.00873 16.2472C6.7516 16.0407 5.84974 15.0804 5.67757 13.8332C5.43024 12.0495 5.16652 10.2671 4.911 8.48343C4.70603 7.06049 4.50243 5.63889 4.29883 4.21596C4.18951 3.45151 4.08429 2.68707 3.96815 1.92396C3.8561 1.19171 3.24256 0.678054 2.45685 0.661961C1.91028 0.649891 1.3637 0.659279 0.817117 0.659279C0.698236 0.657938 0.577989 0.657937 0.416748 0.657937Z" fill="black"/>
<path d="M11.3928 13.9322C11.1236 13.9322 10.8777 13.9322 10.6126 13.9322C10.5989 13.8101 10.5866 13.6975 10.5702 13.5486C10.5005 13.5942 10.4404 13.6251 10.3885 13.6666C9.82004 14.1226 8.89496 14.195 8.26366 13.8303C7.92615 13.6358 7.71025 13.3434 7.59273 12.9867C7.37137 12.3148 7.36317 11.6322 7.5982 10.9643C7.96851 9.91416 9.35545 9.53865 10.2874 10.2226C10.3653 10.2803 10.439 10.3433 10.5456 10.4278C10.5634 10.338 10.5853 10.2722 10.5853 10.2079C10.588 9.82163 10.588 9.43538 10.5866 9.05047C10.5866 8.49525 10.506 8.35443 9.96625 8.02585C10.4759 8.00439 10.9228 8.0111 11.3915 8.02049C11.3928 10.0054 11.3928 11.9607 11.3928 13.9322ZM10.588 11.9835C10.588 11.6952 10.5921 11.4055 10.5853 11.1172C10.5825 11.0246 10.5757 10.916 10.5265 10.8436C10.3284 10.5552 10.0783 10.3192 9.73396 10.2012C9.41831 10.0939 9.13272 10.1502 8.88266 10.3675C8.68043 10.5432 8.55744 10.7685 8.48092 11.0179C8.29099 11.6482 8.28552 12.2839 8.46863 12.9156C8.51508 13.0779 8.59161 13.2375 8.68589 13.3783C8.99607 13.8437 9.4798 13.9483 9.95942 13.6479C10.1398 13.5339 10.2887 13.3716 10.4472 13.2268C10.5552 13.1262 10.5948 13.0001 10.5907 12.8499C10.5812 12.5616 10.588 12.2719 10.588 11.9835Z" fill="black"/>
<path d="M9.14845 3.44067C8.86423 4.58331 8.58001 5.72595 8.29306 6.8753C8.16324 6.8753 8.05803 6.8753 7.92958 6.8753C7.77244 6.42736 7.6153 5.98479 7.46089 5.53954C7.19307 4.76839 6.91978 3.99858 6.66562 3.2234C6.5399 2.84118 6.3281 2.55284 5.92773 2.3919C6.21196 2.3919 6.50164 2.35703 6.77766 2.39995C7.15617 2.45762 7.38164 2.71512 7.49368 3.0732C7.70822 3.75986 8.21517 5.33166 8.27529 5.50869L9.05553 2.7178C9.32063 2.7178 9.55839 2.7178 9.83851 2.7178C10.1364 3.57344 10.4561 4.58867 10.7636 5.46846L11.6573 2.71377H11.9428C11.5179 4.08709 11.0943 5.48187 10.6652 6.86725C10.5504 6.86725 10.4466 6.86725 10.3168 6.86725C9.95329 5.72998 9.58845 4.58733 9.22224 3.44603C9.19765 3.44469 9.17305 3.44201 9.14845 3.44067Z" fill="black"/>
<path d="M14.7205 11.262C14.7205 11.0354 14.7382 10.8315 14.7164 10.6317C14.6877 10.3742 14.5401 10.1891 14.2709 10.1382C13.7298 10.0376 13.0807 10.0805 12.7022 10.6371L12.4358 10.6263C12.5997 10.2776 12.9413 10.0389 13.2952 9.93834C13.8008 9.79618 14.3133 9.81228 14.8134 9.97187C15.2916 10.1248 15.5554 10.46 15.5622 10.9563C15.5731 11.9111 15.5513 13.9376 15.5513 13.9376L14.7177 13.9523L14.7232 13.385C14.618 13.4655 14.536 13.5648 14.4595 13.6197C14.0974 13.8799 13.6929 14.0301 13.2461 14.057C12.6202 14.0958 12.2226 13.7619 12.157 13.153C12.1447 13.0364 12.142 12.917 12.1461 12.8003C12.1638 12.3121 12.4016 11.9527 12.8621 11.7784C13.2269 11.6402 13.6123 11.5557 13.9908 11.4525C14.2285 11.3868 14.4718 11.3264 14.7205 11.262ZM14.7355 11.482C14.3898 11.5799 14.0933 11.6483 13.8077 11.7489C13.1272 11.9903 12.8375 12.6608 13.1162 13.314C13.2365 13.5943 13.4524 13.7351 13.7585 13.7083C14.1534 13.6734 14.4417 13.4467 14.6918 13.1678C14.7232 13.1329 14.7328 13.0685 14.7341 13.0176C14.7368 12.5267 14.7355 12.0359 14.7355 11.482Z" fill="black"/>
<path d="M19.5766 14.0704L18.7281 14.0557C18.7281 14.0557 18.7472 13.4562 18.7472 13.4897C18.7472 13.4897 18.5696 13.6627 18.5026 13.711C18.0872 14.0154 17.6253 14.1844 17.1006 14.1643C16.6169 14.1455 16.2821 13.8947 16.1974 13.432C16.1523 13.1839 16.1537 12.917 16.1933 12.6662C16.2507 12.3028 16.4912 12.0386 16.8369 11.9085C17.1922 11.7744 17.5638 11.6845 17.9301 11.5813C18.191 11.5075 18.4548 11.4458 18.7308 11.3747C18.7308 11.1494 18.7486 10.9469 18.7267 10.7484C18.6939 10.444 18.5094 10.2629 18.1938 10.2294C17.665 10.1731 17.1034 10.2133 16.7194 10.7203H16.4584C16.6019 10.4038 16.8916 10.1905 17.2072 10.0859C17.7634 9.90083 18.3277 9.9129 18.8784 10.1047C19.343 10.2656 19.5671 10.617 19.5725 11.0931C19.5794 11.7704 19.5766 14.0704 19.5766 14.0704ZM18.7458 11.5907C18.3673 11.7033 18.038 11.7771 17.7292 11.8991C17.1075 12.1445 16.8465 12.8916 17.1553 13.4843C17.2906 13.7432 17.5393 13.8733 17.8317 13.821C18.1774 13.7579 18.4507 13.5675 18.6789 13.3127C18.7185 13.2684 18.7445 13.1973 18.7445 13.1397C18.7472 12.6475 18.7458 12.158 18.7458 11.5907Z" fill="black"/>
<path d="M18.7257 6.82302L18.7189 6.304C18.626 6.3724 18.5604 6.41934 18.4948 6.46896C18.1463 6.72914 17.7528 6.87934 17.321 6.9236C16.6432 6.99468 16.2019 6.62453 16.1554 5.96201C16.1021 5.18818 16.3727 4.77913 17.1352 4.53907C17.5082 4.42105 17.8963 4.34729 18.2761 4.25073C18.4223 4.21318 18.5658 4.16624 18.7298 4.11661C18.7298 3.91142 18.7435 3.71964 18.7271 3.53054C18.6984 3.21672 18.5412 3.04371 18.216 2.99275C17.6845 2.9096 17.0395 2.9847 16.717 3.4836L16.4547 3.47421C16.6323 3.11479 16.9807 2.88009 17.3606 2.78755C17.8471 2.66819 18.3376 2.68563 18.8159 2.83584C19.2818 2.98202 19.5551 3.30791 19.5633 3.7867C19.5797 4.7617 19.5743 5.85472 19.5702 6.82972L18.7257 6.82302ZM18.7366 4.35265C18.4073 4.44385 18.1354 4.51225 17.8662 4.59406C17.0381 4.84485 16.9534 5.50334 17.0969 6.0988C17.183 6.45555 17.4699 6.62319 17.8402 6.56552C18.1914 6.51053 18.4551 6.30534 18.682 6.05321C18.7148 6.017 18.7339 5.95665 18.7339 5.90702C18.738 5.40544 18.7366 4.9052 18.7366 4.35265Z" fill="black"/>
<path d="M14.5062 4.10599C14.4898 3.86861 14.4912 3.64464 14.4556 3.42603C14.4201 3.20743 14.2739 3.05588 14.0498 3.01162C13.4991 2.90299 12.7927 2.9553 12.4661 3.51991L12.1942 3.49711C12.3581 3.15378 12.6546 2.92981 12.9867 2.82789C13.5346 2.65891 14.0867 2.67634 14.6264 2.86008C15.0213 2.99553 15.2878 3.28253 15.2974 3.69024C15.322 4.7162 15.311 5.82665 15.311 6.87408H14.4652L14.4734 6.29739C14.3887 6.36042 14.3313 6.39932 14.2753 6.44357C13.9241 6.71851 13.521 6.87274 13.0782 6.92236C12.3923 6.9988 11.9414 6.61658 11.9004 5.93931C11.8553 5.19901 12.1204 4.78996 12.8432 4.55526C13.2354 4.42786 13.644 4.34873 14.0443 4.24546C14.1892 4.20925 14.3313 4.15963 14.5062 4.10599ZM14.4693 4.35946C14.1728 4.43859 13.9186 4.49759 13.6699 4.57538C13.0277 4.77789 12.6984 5.12658 12.82 5.98625C12.8897 6.47442 13.29 6.70509 13.7587 6.51734C13.9746 6.4315 14.1605 6.26923 14.3545 6.13511C14.4707 6.05465 14.5035 5.93529 14.5007 5.79715C14.4953 5.39079 14.4994 4.98308 14.498 4.57672C14.498 4.51503 14.4816 4.45468 14.4693 4.35946Z" fill="black"/>
<path d="M11.5673 18.9574C11.5741 19.5247 11.1218 19.9861 10.5465 19.9995C9.96307 20.0129 9.48071 19.5462 9.48071 18.9681C9.48071 18.4035 9.94121 17.9516 10.5206 17.9475C11.1 17.9435 11.5604 18.3874 11.5673 18.9574Z" fill="black"/>
<path d="M18.4713 17.9475C19.0507 17.9516 19.5071 18.4008 19.5071 18.9695C19.5071 19.5354 19.0466 19.9941 18.4727 19.9995C17.8906 20.0048 17.4068 19.5274 17.4164 18.9561C17.426 18.3901 17.8933 17.9435 18.4713 17.9475Z" fill="black"/>
</svg>
