<svg width="24" height="24" viewBox="0 0 24 24" fill="none" xmlns="http://www.w3.org/2000/svg">
<path d="M20.6778 12.8676C20.6778 14.5039 20.6778 15.322 20.1694 15.8304C19.6611 16.3387 18.843 16.3387 17.2067 16.3387L6.79333 16.3387C5.15704 16.3387 4.33889 16.3387 3.83056 15.8304C3.32222 15.322 3.32222 14.5039 3.32222 12.8676L3.32222 11.132C3.32222 9.49574 3.32222 8.67759 3.83056 8.16926C4.33889 7.66093 5.15704 7.66093 6.79333 7.66093H17.2067C18.843 7.66093 19.6611 7.66093 20.1694 8.16926C20.6778 8.67759 20.6778 9.49574 20.6778 11.132L20.6778 12.8676Z" stroke="#333333"/>
<path d="M12 16.2412L12 14.5442" stroke="#333333" stroke-linecap="round"/>
<path d="M6.90908 16.2421L6.90908 14.5451" stroke="#333333" stroke-linecap="round"/>
<path d="M17.0918 16.2412L17.0918 14.5442" stroke="#333333" stroke-linecap="round"/>
<path d="M14.546 16.2413L14.546 13.6957" stroke="#333333" stroke-linecap="round"/>
<path d="M9.45487 16.2421L9.45487 13.6965" stroke="#333333" stroke-linecap="round"/>
</svg>
