<svg width="28" height="28" viewBox="0 0 28 28" fill="none" xmlns="http://www.w3.org/2000/svg">
<path d="M15.4417 21.5001C15.2952 21.7526 15.0849 21.9623 14.8319 22.108C14.5788 22.2538 14.292 22.3305 14 22.3305C13.708 22.3305 13.4212 22.2538 13.1681 22.108C12.9151 21.9623 12.7048 21.7526 12.5583 21.5001M19 10.6667C19 9.34067 18.4732 8.0689 17.5355 7.13121C16.5979 6.19353 15.3261 5.66675 14 5.66675C12.6739 5.66675 11.4021 6.19353 10.4645 7.13121C9.52678 8.0689 9 9.34067 9 10.6667C9 16.5001 6.5 18.1667 6.5 18.1667H21.5C21.5 18.1667 19 16.5001 19 10.6667Z" stroke="#333333" stroke-linecap="round" stroke-linejoin="round"/>
<circle cx="19" cy="7" r="3" fill="#BA9B38"/>
</svg>
