<svg width="28" height="28" viewBox="0 0 28 28" fill="none" xmlns="http://www.w3.org/2000/svg">
<path d="M2.5 2.78952C2.5 2.50789 2.5 2.28258 2.5 2.02508C2.6279 2.01542 2.74104 2.00255 2.85582 2.00255C3.55107 2.00094 4.24632 1.99772 4.94157 2.00255C6.28451 2.0106 7.35526 2.90379 7.55531 4.21863C7.82587 5.98732 8.07183 7.75922 8.32763 9.5279C8.60638 11.4511 8.88514 13.3743 9.16061 15.2974C9.30655 16.3162 9.46232 17.3349 9.59186 18.3552C9.73616 19.4818 10.3019 20.2752 11.4185 20.6373C11.6743 20.721 11.958 20.7483 12.2302 20.758L25.4924 21.0026V21.7944L12.8664 21.5659C12.4466 21.553 12.022 21.5643 11.6104 21.4967C10.1018 21.2488 9.0196 20.0965 8.81299 18.5998C8.5162 16.4594 8.19973 14.3206 7.8931 12.1801C7.64714 10.4726 7.40281 8.76667 7.15849 7.05915C7.02731 6.14181 6.90105 5.22448 6.76168 4.30876C6.62722 3.43005 5.89098 2.81367 4.94813 2.79435C4.29223 2.77987 3.63634 2.79113 2.98044 2.79113C2.83779 2.78952 2.69349 2.78952 2.5 2.78952Z" fill="black"/>
<path d="M15.6714 18.7187C15.3484 18.7187 15.0532 18.7187 14.7351 18.7187C14.7187 18.5723 14.7039 18.4371 14.6843 18.2584C14.6006 18.3132 14.5285 18.3502 14.4662 18.4001C13.7841 18.9473 12.6739 19.0342 11.9164 18.5964C11.5114 18.3631 11.2523 18.0122 11.1113 17.5841C10.8456 16.7778 10.8358 15.9587 11.1178 15.1572C11.5622 13.8971 13.2265 13.4465 14.3448 14.2672C14.4383 14.3364 14.5269 14.4121 14.6548 14.5135C14.6761 14.4056 14.7023 14.3268 14.7023 14.2495C14.7056 13.786 14.7056 13.3226 14.7039 12.8607C14.7039 12.1944 14.6072 12.0254 13.9595 11.6311C14.5711 11.6054 15.1073 11.6134 15.6698 11.6247C15.6714 14.0065 15.6714 16.353 15.6714 18.7187ZM14.7056 16.3803C14.7056 16.0343 14.7105 15.6867 14.7023 15.3407C14.699 15.2296 14.6908 15.0993 14.6318 15.0124C14.394 14.6664 14.094 14.3831 13.6807 14.2415C13.302 14.1127 12.9593 14.1803 12.6592 14.4411C12.4165 14.6519 12.2689 14.9223 12.1771 15.2216C11.9492 15.978 11.9426 16.7408 12.1624 17.4988C12.2181 17.6936 12.3099 17.8851 12.4231 18.0541C12.7953 18.6125 13.3758 18.738 13.9513 18.3775C14.1677 18.2407 14.3465 18.046 14.5367 17.8722C14.6662 17.7515 14.7138 17.6002 14.7089 17.42C14.6974 17.074 14.7056 16.7263 14.7056 16.3803Z" fill="black"/>
<path d="M12.9781 6.1288C12.6371 7.49997 12.296 8.87114 11.9517 10.2504C11.7959 10.2504 11.6696 10.2504 11.5155 10.2504C11.3269 9.71284 11.1384 9.18175 10.9531 8.64744C10.6317 7.72206 10.3037 6.79829 9.99874 5.86808C9.84788 5.40942 9.59372 5.06341 9.11328 4.87028C9.45435 4.87028 9.80197 4.82844 10.1332 4.87994C10.5874 4.94914 10.858 5.25814 10.9924 5.68784C11.2499 6.51183 11.8582 8.39799 11.9304 8.61043L12.8666 5.26136C13.1848 5.26136 13.4701 5.26136 13.8062 5.26136C14.1637 6.28813 14.5474 7.50641 14.9163 8.56215L15.9887 5.25653H16.3314C15.8214 6.90451 15.3131 8.57824 14.7983 10.2407C14.6605 10.2407 14.5359 10.2407 14.3801 10.2407C13.9439 8.87597 13.5061 7.5048 13.0667 6.13524C13.0372 6.13363 13.0077 6.13041 12.9781 6.1288Z" fill="black"/>
<path d="M19.6646 15.5144C19.6646 15.2424 19.686 14.9977 19.6597 14.758C19.6253 14.449 19.4482 14.2269 19.1252 14.1657C18.4758 14.045 17.697 14.0965 17.2427 14.7644L16.923 14.7515C17.1198 14.3331 17.5297 14.0466 17.9544 13.9259C18.5611 13.7553 19.176 13.7746 19.7761 13.9661C20.3501 14.1496 20.6665 14.552 20.6747 15.1474C20.6878 16.2933 20.6616 18.725 20.6616 18.725L19.6614 18.7427L19.6679 18.062C19.5417 18.1585 19.4433 18.2776 19.3514 18.3436C18.9169 18.6558 18.4316 18.8361 17.8954 18.8682C17.1444 18.9149 16.6672 18.5142 16.5885 17.7835C16.5737 17.6435 16.5705 17.5003 16.5754 17.3603C16.5967 16.7745 16.882 16.3432 17.4346 16.134C17.8724 15.9682 18.3348 15.8668 18.789 15.7429C19.0743 15.664 19.3662 15.5916 19.6646 15.5144ZM19.6827 15.7783C19.2678 15.8958 18.912 15.9778 18.5693 16.0985C17.7527 16.3882 17.4051 17.1929 17.7396 17.9767C17.8839 18.313 18.143 18.482 18.5103 18.4498C18.9841 18.408 19.3301 18.136 19.6302 17.8012C19.6679 17.7594 19.6794 17.6822 19.681 17.621C19.6843 17.032 19.6827 16.4429 19.6827 15.7783Z" fill="black"/>
<path d="M25.4921 18.8846L24.4739 18.8669C24.4739 18.8669 24.4968 18.1475 24.4968 18.1877C24.4968 18.1877 24.2837 18.3953 24.2033 18.4533C23.7048 18.8186 23.1506 19.0214 22.5209 18.9972C21.9405 18.9747 21.5387 18.6738 21.4371 18.1185C21.383 17.8208 21.3846 17.5005 21.4322 17.1996C21.501 16.7634 21.7896 16.4464 22.2045 16.2903C22.6308 16.1294 23.0768 16.0215 23.5163 15.8976C23.8295 15.8091 24.1459 15.7351 24.4772 15.6498C24.4772 15.3794 24.4985 15.1364 24.4722 14.8982C24.4329 14.5329 24.2115 14.3156 23.8327 14.2754C23.1982 14.2078 22.5242 14.2561 22.0635 14.8644H21.7503C21.9224 14.4846 22.2701 14.2287 22.6488 14.1032C23.3162 13.8811 23.9934 13.8956 24.6542 14.1257C25.2118 14.3188 25.4807 14.7405 25.4872 15.3118C25.4954 16.1245 25.4921 18.8846 25.4921 18.8846ZM24.4952 15.9089C24.041 16.0441 23.6458 16.1326 23.2752 16.279C22.5291 16.5735 22.216 17.47 22.5865 18.1813C22.7489 18.4919 23.0473 18.648 23.3982 18.5852C23.8131 18.5096 24.141 18.2811 24.4148 17.9753C24.4624 17.9222 24.4935 17.8369 24.4935 17.7677C24.4968 17.1771 24.4952 16.5896 24.4952 15.9089Z" fill="black"/>
<path d="M24.471 10.1877L24.4628 9.56485C24.3513 9.64692 24.2726 9.70325 24.1939 9.7628C23.7758 10.075 23.3035 10.2553 22.7854 10.3084C21.9721 10.3937 21.4424 9.94948 21.3867 9.15446C21.3227 8.22586 21.6474 7.73501 22.5624 7.44693C23.01 7.30531 23.4757 7.2168 23.9316 7.10092C24.107 7.05586 24.2792 6.99953 24.476 6.93999C24.476 6.69376 24.4924 6.46362 24.4727 6.2367C24.4382 5.86011 24.2497 5.6525 23.8594 5.59135C23.2216 5.49157 22.4476 5.58169 22.0606 6.18037L21.7458 6.1691C21.959 5.7378 22.3771 5.45616 22.8329 5.34511C23.4167 5.20188 24.0053 5.2228 24.5793 5.40305C25.1384 5.57847 25.4664 5.96954 25.4762 6.54408C25.4959 7.71409 25.4893 9.02571 25.4844 10.1957L24.471 10.1877ZM24.4842 7.22323C24.089 7.33267 23.7627 7.41475 23.4396 7.51292C22.446 7.81387 22.3443 8.60406 22.5165 9.31861C22.6198 9.7467 22.9641 9.94787 23.4085 9.87867C23.8299 9.81269 24.1464 9.56646 24.4186 9.2639C24.4579 9.22044 24.4809 9.14802 24.4809 9.08848C24.4858 8.48658 24.4842 7.88629 24.4842 7.22323Z" fill="black"/>
<path d="M19.4073 6.92708C19.3877 6.64223 19.3893 6.37347 19.3467 6.11114C19.304 5.84882 19.1286 5.66696 18.8597 5.61385C18.1989 5.48349 17.3511 5.54626 16.9592 6.2238L16.6329 6.19644C16.8297 5.78444 17.1855 5.51568 17.584 5.39337C18.2415 5.19059 18.9039 5.21151 19.5516 5.43199C20.0255 5.59454 20.3453 5.93894 20.3568 6.42818C20.3863 7.65934 20.3732 8.99189 20.3732 10.2488H19.3582L19.368 9.55677C19.2663 9.63241 19.1975 9.67908 19.1302 9.73219C18.7088 10.0621 18.2251 10.2472 17.6938 10.3067C16.8707 10.3985 16.3296 9.9398 16.2804 9.12707C16.2263 8.23871 16.5444 7.74786 17.4118 7.46622C17.8824 7.31333 18.3727 7.21838 18.8531 7.09446C19.0269 7.051 19.1975 6.99146 19.4073 6.92708ZM19.3631 7.23125C19.0073 7.3262 18.7023 7.39702 18.4038 7.49036C17.6332 7.73337 17.238 8.1518 17.3839 9.1834C17.4675 9.76921 17.948 10.046 18.5104 9.82071C18.7695 9.71771 18.9925 9.52298 19.2253 9.36204C19.3647 9.26548 19.4041 9.12225 19.4008 8.95648C19.3942 8.46885 19.3992 7.9796 19.3975 7.49197C19.3975 7.41794 19.3778 7.34552 19.3631 7.23125Z" fill="black"/>
<path d="M15.8808 24.749C15.889 25.4297 15.3463 25.9834 14.6559 25.9995C13.9558 26.0156 13.377 25.4555 13.377 24.7619C13.377 24.0843 13.9295 23.542 14.6248 23.5371C15.32 23.5323 15.8726 24.065 15.8808 24.749Z" fill="black"/>
<path d="M24.1657 23.5371C24.861 23.542 25.4086 24.0811 25.4086 24.7635C25.4086 25.4426 24.856 25.993 24.1673 25.9995C23.4688 26.0059 22.8883 25.433 22.8998 24.7474C22.9113 24.0682 23.4721 23.5323 24.1657 23.5371Z" fill="black"/>
</svg>
